<?xml version="1.0" encoding="utf-8"?>
<svg version="1.1" id="Layer_1" xmlns="http://www.w3.org/2000/svg" xmlns:xlink="http://www.w3.org/1999/xlink" x="0px" y="0px" viewBox="0 0 73.9256592 73.9237061" xml:space="preserve">
<style type="text/css">
	#serkosquare_svg_0{fill:#FFFFFF;}
	#serkosquare_svg_1{fill:url(#serkosquare_svg_2);}
</style>
<linearGradient id="serkosquare_svg_2" gradientUnits="userSpaceOnUse" x1="1.6241188" y1="72.3006821" x2="72.3009949" y2="1.623806">
	<stop offset="0" style="stop-color:#037BC0"/>
	<stop offset="0.5" style="stop-color:#4B9AD4"/>
	<stop offset="1" style="stop-color:#49C7EE"/>
</linearGradient>
<path id="serkosquare_svg_1" d="M68.3803711,0H5.5441895C2.4819336,0,0,2.4830322,0,5.5443115v62.835083
	c0,3.0633545,2.4819336,5.5443115,5.5441895,5.5443115h62.8361816c3.0622559,0,5.5452881-2.480957,5.5452881-5.5443115V5.5443115
	C73.9256592,2.4830322,71.442627,0,68.3803711,0z"/>
<path id="serkosquare_svg_0" d="M73.9246826,36.2076416H50.6740723c-2.0718994-1.8071289-4.885498-3.3182373-8.5690918-4.5859375
	c-5.9326172-2.0758057-7.8112793-3.2625732-7.8112793-5.536377c0-2.4720459,2.0767822-3.9564209,5.734375-3.9564209
	c4.1535645,0,8.3071289,1.5819092,10.4824219,2.7696533l2.6690674-10.3828125
	c-2.9656982-1.4832764-8.0092773-2.7695312-13.6451416-2.7695312c-11.9648438,0-19.6784668,6.8244629-19.6784668,15.8215332
	c-0.0524902,3.0551758,1.0322266,6.0224609,3.5532227,8.6398926H0v1.5083008h25.0703125
	c2.1120605,1.6774902,4.9147949,3.1699219,8.5314941,4.3869629c5.6348877,1.8786621,7.1192627,3.0673828,7.1192627,5.5383301
	c0,2.4720459-1.8796387,4.0539551-6.4273682,4.0539551c-4.4501953,0-10.1845703-1.9771729-12.9543457-3.6577148
	l-2.670166,10.7780762c3.6586914,1.9770508,9.2956543,3.3619385,15.6245117,3.3619385
	c13.8432617,0,20.9626465-6.6245117,20.9626465-15.6243896c-0.048584-3.5065918-1.0146484-6.411377-3.076416-8.8371582h21.744751
	V36.2076416z"/>
</svg>
